<svg width="662" height="378" viewBox="0 0 662 378" fill="none" xmlns="http://www.w3.org/2000/svg">
<path d="M520.919 90.994C501.679 90.994 483.331 94.937 466.603 102.062L426.606 23.1219H482.509C488.574 23.1219 493.508 28.1409 493.508 34.3098C493.508 40.4788 488.574 45.4977 482.509 45.4977H470.581C464.303 45.4977 459.216 50.674 459.216 57.0587C459.216 63.4434 464.303 68.6197 470.581 68.6197H482.509C501.108 68.6197 516.239 53.2282 516.239 34.3098C516.239 15.3915 501.11 0 482.509 0H407.963C404 0 400.322 2.10101 398.258 5.54309C396.196 8.98517 396.044 13.2735 397.86 16.8574L417.749 56.1138H253.716L237.168 23.1219H263.337C269.616 23.1219 274.703 17.9457 274.703 11.561C274.703 5.17622 269.616 0 263.337 0H188.789C182.511 0 177.424 5.17622 177.424 11.561C177.424 17.9457 182.511 23.1219 188.789 23.1219H211.648L233.737 67.1584L207.774 108.073C187.903 97.1829 165.19 90.994 141.079 90.994C63.2884 90.994 0 155.368 0 234.496C0 313.624 63.2884 378 141.079 378C215.044 378 275.893 319.799 281.7 246.057H315.049L302.094 288.937H294.635C288.357 288.937 283.27 294.114 283.27 300.498C283.27 306.883 288.357 312.059 294.635 312.059H335.552C341.83 312.059 346.917 306.883 346.917 300.498C346.917 294.114 341.83 288.937 335.552 288.937H325.874L340.83 239.435L435.401 90.9508L446.417 112.69C406.475 138.059 379.84 183.17 379.84 234.496C379.84 313.624 443.128 378 520.921 378C598.712 378 662 313.624 662 234.496C661.998 155.368 598.71 90.994 520.919 90.994ZM245.681 90.9708L311.872 222.935H281.698C278.422 181.339 257.63 144.694 226.851 120.645L245.681 90.9708ZM258.87 222.935H161.944L214.47 140.16C239.033 159.976 255.719 189.467 258.87 222.935ZM141.079 354.878C75.8209 354.878 22.7313 300.876 22.7313 234.496C22.7313 168.118 75.8209 114.114 141.079 114.114C160.65 114.114 179.109 119.001 195.387 127.591L131.529 228.226C129.273 231.782 129.108 236.309 131.099 240.025C133.089 243.742 136.918 246.056 141.079 246.056H258.87C253.129 307.031 202.502 354.878 141.079 354.878ZM331.602 211.394L265.313 79.2342H415.778L331.602 211.394ZM520.919 354.878C455.661 354.878 402.569 300.875 402.569 234.496C402.569 192.109 424.237 154.797 456.879 133.341L510.816 239.793C512.834 243.774 516.808 246.059 520.928 246.059C522.682 246.059 524.461 245.644 526.126 244.772C531.707 241.847 533.899 234.875 531.022 229.198L477.069 122.716C490.641 117.188 505.428 114.113 520.919 114.113C586.178 114.113 639.267 168.116 639.267 234.495C639.267 300.876 586.178 354.878 520.919 354.878Z" fill="#DDD51D"/>
</svg>
