<svg width="50" height="50" viewBox="0 0 50 50" fill="none" xmlns="http://www.w3.org/2000/svg">
<g clip-path="url(#clip0_16_37)">
<path d="M25 49C38.2548 49 49 38.2548 49 25C49 11.7452 38.2548 1 25 1C11.7452 1 1 11.7452 1 25C1 38.2548 11.7452 49 25 49Z" stroke="#470074" stroke-width="2" stroke-miterlimit="10" stroke-linecap="round"/>
<path d="M30.287 36.137C30.141 34.525 30.197 33.4 30.197 31.927C30.927 31.544 32.235 29.102 32.456 27.039C33.03 26.992 33.935 26.432 34.2 24.221C34.343 23.034 33.775 22.366 33.429 22.156C34.363 19.347 36.303 10.657 29.841 9.759C29.176 8.591 27.473 8 25.26 8C16.406 8.163 15.338 14.686 17.279 22.156C16.934 22.366 16.366 23.034 16.508 24.221C16.774 26.432 17.678 26.992 18.252 27.039C18.472 29.101 19.832 31.544 20.564 31.927C20.564 33.4 20.619 34.525 20.473 36.137C19.212 39.527 12.736 39.792 9 43.061C12.906 46.994 19.236 49.807 25.916 49.807C32.596 49.807 40.448 44.533 41.755 43.094C38.042 39.795 31.551 39.539 30.287 36.137Z" fill="#470074"/>
</g>
<defs>
<clipPath id="clip0_16_37">
<rect width="50" height="50" fill="white"/>
</clipPath>
</defs>
</svg>
